<svg xmlns="http://www.w3.org/2000/svg" xmlns:xlink="http://www.w3.org/1999/xlink" width="256.776" height="53.793" viewBox="0 0 256.776 53.793">
  <defs>
    <clipPath id="clip-path">
      <path id="Path_16088" data-name="Path 16088" d="M0-36.207H256.776V-90H0Z" transform="translate(0 90)" fill="#fff"/>
    </clipPath>
    <clipPath id="clip-path-2">
      <path id="Path_16090" data-name="Path 16090" d="M41.727-5.813l-.123.192a10.672,10.672,0,0,0-.054,1.708h0A4.265,4.265,0,0,1,40.778-.9h0l-.357.511.627-.093a4.888,4.888,0,0,0,4.029-3.322h0l.054-.153L43.889-5.372l-.909,2.2.469-2.559-.974-.554Z" transform="translate(-40.421 6.286)" fill="#fff"/>
    </clipPath>
  </defs>
  <g id="Group_2845" data-name="Group 2845" transform="translate(0 90)">
    <g id="Group_2273" data-name="Group 2273" transform="translate(0 -90)" clip-path="url(#clip-path)">
      <text id="Wrekin" transform="translate(56.327 42.434)" fill="#fff" font-size="40" font-family="GrandCentral" font-weight="300" letter-spacing="0.15em"><tspan x="0" y="0">Wrekin</tspan></text>
      <g id="Group_2272" data-name="Group 2272" transform="translate(24.16 50.036)">
        <path id="Path_16087" data-name="Path 16087" d="M-.3-.108l-.042.065A3.566,3.566,0,0,0-.359.538,1.449,1.449,0,0,1-.622,1.562l-.121.174L-.53,1.7A1.662,1.662,0,0,0,.84.574L.859.523.436.042.127.79l.16-.87L-.045-.269Z" transform="translate(0.743 0.269)" fill="#fff"/>
      </g>
    </g>
    <g id="Group_2274" data-name="Group 2274" transform="translate(71.048 -47.256)" clip-path="url(#clip-path-2)">
      <path id="Path_16089" data-name="Path 16089" d="M15.477-6.1h9.994V6.413H15.477Z" transform="translate(-59.321 6.425)" fill="#fff"/>
    </g>
    <g id="Group_2278" data-name="Group 2278" transform="translate(0 -90)" clip-path="url(#clip-path)">
      <g id="Group_2275" data-name="Group 2275" transform="translate(21.189 51.7)">
        <path id="Path_16091" data-name="Path 16091" d="M-.135,0-.171.09a2.325,2.325,0,0,0,0,1.723l.1.282L.426.246Z" transform="translate(0.337)" fill="#fff"/>
      </g>
      <g id="Group_2276" data-name="Group 2276" transform="translate(17.761 49.292)">
        <path id="Path_16092" data-name="Path 16092" d="M-.251,0A.314.314,0,0,0-.538.166C-.845.684-.26,2.33.07,2.884c.12.205.218.3.314.3l.1-.018L.489,3.1A6.572,6.572,0,0,0,.457.627L.407.585.268.591l-.149.845L.048,1.4.222.182.171.149A.854.854,0,0,0-.252,0M-.417.665-.42.4v0Z" transform="translate(0.625 0)" fill="#fff"/>
      </g>
      <g id="Group_2277" data-name="Group 2277" transform="translate(17.167 48.465)">
        <path id="Path_16093" data-name="Path 16093" d="M-.691,0l-.763.011-.027.046a1.974,1.974,0,0,0,.016,1.905l.1.228.075-.238a2.577,2.577,0,0,0,.074-.9l0-.162.179-.136Z" transform="translate(1.718)" fill="#fff"/>
      </g>
    </g>
    <g id="Group_2279" data-name="Group 2279" transform="translate(22.503 -51.653)">
      <path id="Path_16095" data-name="Path 16095" d="M1.918,0-2.531,3.248.828,3.011,2.065,2.13l-.06.476L-.1,3.733,2.041,3.9,6.764,2.339,3.646,1.777,3.361.524Z" transform="translate(2.531)" fill="#fff"/>
    </g>
    <g id="Group_2283" data-name="Group 2283" transform="translate(0 -90)" clip-path="url(#clip-path)">
      <g id="Group_2280" data-name="Group 2280" transform="translate(5.322 39.398)">
        <path id="Path_16096" data-name="Path 16096" d="M-.569,0l-.525.162-.32.455.2.9.253.465.485.636.257-1.258L-.442.14-.7.795-.728.963a1.533,1.533,0,0,1,.1-.8Z" transform="translate(1.414)" fill="#fff"/>
      </g>
      <g id="Group_2281" data-name="Group 2281" transform="translate(3.772 37.497)">
        <path id="Path_16097" data-name="Path 16097" d="M-.775,0l-.549,1.268L-1.29.736-1.053.05l-.721.163-.017.047a1.644,1.644,0,0,0-.084,1.062c.017.118.04.26.07.464l.617,1.379L-.672,2.1l-.143-.518.366-.423A.451.451,0,0,0-.206.853C-.176.642-.362.448-.543.258-.587.211-.634.162-.677.113Z" transform="translate(1.927)" fill="#fff"/>
      </g>
      <g id="Group_2282" data-name="Group 2282" transform="translate(3.048 25.028)">
        <path id="Path_16098" data-name="Path 16098" d="M-.373,0-.806,1.516A.721.721,0,0,0-.869,2.2a.4.4,0,0,0,.293.212l.081.014L.044.715Z" transform="translate(0.927)" fill="#fff"/>
      </g>
    </g>
    <g id="Group_2284" data-name="Group 2284" transform="translate(7.625 -66.144)">
      <path id="Path_16100" data-name="Path 16100" d="M.908,0-.377.165-1.2,1.359-1.152,3.1l.979,1.6Z" transform="translate(1.198)" fill="#fff"/>
    </g>
    <g id="Group_2285" data-name="Group 2285" transform="translate(1.197 -67.537)">
      <path id="Path_16101" data-name="Path 16101" d="M.329.107-.434,4l.23.752.833.967L2.046,1,1.7-.141Z" transform="translate(0.434 0.141)" fill="#fff"/>
    </g>
    <g id="Group_2286" data-name="Group 2286" transform="translate(0 -67.545)">
      <path id="Path_16102" data-name="Path 16102" d="M0,.654.207,2.276l.78,1.879,1.1-4.793L.585-.863Z" transform="translate(0 0.863)" fill="#fff"/>
    </g>
    <g id="Group_2289" data-name="Group 2289" transform="translate(0 -90)" clip-path="url(#clip-path)">
      <g id="Group_2287" data-name="Group 2287" transform="translate(15.942 1.753)">
        <path id="Path_16103" data-name="Path 16103" d="M-.281,0A5.7,5.7,0,0,0-.638,1.626c-.047.75-.165,1.937.155,2.206a1.567,1.567,0,0,0,.958.3c.047,0,.1,0,.144-.006.423-.025,1-.047,1.555-.047a3.622,3.622,0,0,1,1.632.194c-.048-.468-.986-.67-1.423-.877a1.744,1.744,0,0,0-.221-.068l.331-.443-.868-.556.306.947A2.794,2.794,0,0,1,.738,2.87L.451,2.562.225,2.218.094,1.965l-.218-.926Z" transform="translate(0.698)" fill="#fff"/>
      </g>
      <g id="Group_2288" data-name="Group 2288" transform="translate(2.191 7.704)">
        <path id="Path_16104" data-name="Path 16104" d="M0,0,.115.192C.361.6.558.864,1.489,1.076l.1.023L1.706.25,1.481.26A5.3,5.3,0,0,1,.221.056Z" fill="#fff"/>
      </g>
    </g>
    <g id="Group_2290" data-name="Group 2290" transform="translate(3.792 -81.273)">
      <path id="Path_16106" data-name="Path 16106" d="M1.442,0-.337.287-1.65,1.7l-.253.921.736.606Z" transform="translate(1.903)" fill="#fff"/>
    </g>
    <g id="Group_2291" data-name="Group 2291" transform="translate(1.956 -82.052)">
      <path id="Path_16107" data-name="Path 16107" d="M.934,0-1.233,4.308.047,4,.932,2.633l.418-.424L2.6.234Z" transform="translate(1.233)" fill="#fff"/>
    </g>
    <g id="Group_2292" data-name="Group 2292" transform="translate(2.231 -83.823)">
      <path id="Path_16108" data-name="Path 16108" d="M1.913,0l-2.5,1.649-1.94,2.485L-.282,3.2l2.223-.62Z" transform="translate(2.525)" fill="#fff"/>
    </g>
    <g id="Group_2293" data-name="Group 2293" transform="translate(62.196 -86.345)">
      <path id="Path_16109" data-name="Path 16109" d="M0,0,.005.375.271,0Z" transform="translate(0 0.005)" fill="#fff"/>
    </g>
    <g id="Group_2302" data-name="Group 2302" transform="translate(0 -90)" clip-path="url(#clip-path)">
      <g id="Group_2294" data-name="Group 2294" transform="translate(7.181 14.922)">
        <path id="Path_16110" data-name="Path 16110" d="M-.208,0C-.49,1.39-.74,2.434-.2,2.88a1.072,1.072,0,0,0,.019-.145Z" transform="translate(0.518)" fill="#fff"/>
      </g>
      <g id="Group_2295" data-name="Group 2295" transform="translate(35.114 29.172)">
        <path id="Path_16111" data-name="Path 16111" d="M-.05,0C-.077.049-.1.1-.125.147-.081.143-.061.087-.05,0" transform="translate(0.125)" fill="#fff"/>
      </g>
      <g id="Group_2296" data-name="Group 2296" transform="translate(0.198)">
        <path id="Path_16112" data-name="Path 16112" d="M-20,0c-.166.056-.314.113-.484.169A16.391,16.391,0,0,1-25.432.8c-.785,0-1.574-.028-2.359-.06-.654.582-1.142,1.1-.571,1.1a.7.7,0,0,0,.077,0A3.419,3.419,0,0,1-27.27,1.7a5.725,5.725,0,0,1,3.065.9l-.068.183-.452-.05a2.327,2.327,0,0,1-1.71.772A1.775,1.775,0,0,1-28.28,2.132l-.242.022h-.009a.482.482,0,0,1-.215-.068.428.428,0,0,1-.154-.437l.147-.276,0-.126c-.045,0-.106,0-.181,0a8.026,8.026,0,0,0-2.316.3c-.445.533-.709,1.9-.125,2.426a2.005,2.005,0,0,0,1.233.458A3.028,3.028,0,0,0-28.722,4a1.333,1.333,0,0,0,.184-.1,2.7,2.7,0,0,1-.106,2.282l-.051.036a2.79,2.79,0,0,1-1.733.761,3.451,3.451,0,0,1-1.066-.237,3.7,3.7,0,0,0-.674,1.374,2.676,2.676,0,0,1,.748-.171h.042c.616,0,1.917.16,2.7.171a4.006,4.006,0,0,0,.5-.042c.412-.005,1.339-.672,1.192-2.073-.062-.4-.12-.785-.2-1.164L-27,4.82a1.849,1.849,0,0,0,1.829,1.662c1.3,0,2.578-1.286,1.293-2.717h.008c.538,0,.864.7.941,1.157,1.455,1.534-2.51,4.13-2.644,5.626l-.307-.908h-.246l-1.047,1.414-.3,0c.6-1.414-.03-2.937,1.185-4.153l.062.22a5.085,5.085,0,0,0-.715,3.07l1.178-1.473.787-1.538.131.052-.608,2.213c1.215-1.381,3.075-3.406,2.355-4.309C-23.1,6.3-24.121,6.793-25.117,6.793a2.429,2.429,0,0,1-1.565-.5,2.372,2.372,0,0,1-1.042,1.978,3.073,3.073,0,0,1-.951.14h-.059a13.421,13.421,0,0,1-1.394-.094c-.439-.048-.819-.094-1.047-.094-.132,0-.213.016-.225.056A2.171,2.171,0,0,1-33.051,9.35a1.114,1.114,0,0,1-.824-.372c-.2.31.139.819.7.956a1.484,1.484,0,0,0,.531.131.607.607,0,0,0,.382-.123c.5-.389.864-1.245,1.341-1.653a.389.389,0,0,1,.131.126,17.18,17.18,0,0,0-1.535,2.515.764.764,0,0,0,.148.013c.809,0,1.313-1.181,1.656-2.169h.094a6.072,6.072,0,0,1-.8,1.941,6.184,6.184,0,0,0,2.237-2.009l.319.013v.054a10.5,10.5,0,0,1-.831,2.072,2.726,2.726,0,0,0,.845-.521,4.542,4.542,0,0,0,.849-.975l.111.18a2.486,2.486,0,0,1-.956,1.158,6.6,6.6,0,0,1-1.506.764,12.982,12.982,0,0,0,.879-2.05,3.919,3.919,0,0,1-3.214,2,2.076,2.076,0,0,1-.8-.152L-33.33,11c.651-.009.595-.026.885-.614-2.283.61-6.443,1.327-7.128,5.147-.023.059-.031.087-.022.087a10.682,10.682,0,0,1,5.031-3.039,51.193,51.193,0,0,1,5.921-1.088c.71-.112,1.453-.25,2.254-.4a6.115,6.115,0,0,0,3.02-1.911,5.054,5.054,0,0,1-2.682,2.108c-.616.134-1.512.253-2.592.411-4.17.644-10.894,1.943-11.652,6.015a5.688,5.688,0,0,1,3.431-2.024c-1.947,1.225-2.821,1.326-2.791,3.841,1.176-3.131,3.221-3.829,5.755-4.254-.555.243-1.114.43-1.672.694a3.317,3.317,0,0,0-.767,3.234c.417-1.372,1.717-3.431,3.057-3.99,1.521-.653,2.506-.811,3.671-1.864-.7,2.141-6.242,1.255-5.522,7.007a5.86,5.86,0,0,1,2.935-3.2l1.694-.586-.056.257c-2.029.607-2.5,1.341-4.039,2.9l-.518,1.779-.319-.106a6.9,6.9,0,0,1,.44-3.908,4.193,4.193,0,0,0-1.327,3.172l-.189-.056a6.58,6.58,0,0,1,.141-4.265c-1.357.652-3.409,2.3-3.087,4.225l-.188-.033-.469-1.82-.348.351-.1-1.823.731-1.485c.38-2.813,1.273-3.094,3.4-4.54-2.854-1.337-3.7-3.789-5.872-5.92-.016-1.112.112-1.4-.244-1.566a4.951,4.951,0,0,0-.972-.244l.063.55c.23.433.755.736.761,1.194-2.974-2.011.524-3.143-4.48-3.179l-.341,1.186a14.942,14.942,0,0,0,2.623.686,2.621,2.621,0,0,1-.732.113,2.554,2.554,0,0,1-.947-.2,2.078,2.078,0,0,0-.685-.2c-.3,0-.578.2-.955.865l.848.558c-.374.735-.4,1.848.212,1.848a1.635,1.635,0,0,0,.962-.53h.008c.215,0,.369.2.516.359L-46.1,7.6c.639.669,0,.62.37,1.512a2.512,2.512,0,0,0,.947.23c.764,0,.867-.646.65-.977l.318-.039c.658,2.344-2.015,5.017,0,8.04l-.015-1.041,1.39-2.439.091-.13.161-.821L-42,12a14.789,14.789,0,0,1-.416,2.922l.031,2.735a29.833,29.833,0,0,1,1.068-2.8c.209.071-1.066,2.873.024,3.61l.61-2.213.112.071-.344,2.613.329.852a12.561,12.561,0,0,1-1.761,1.294,10.765,10.765,0,0,1-2.769,1.271l-1.571-.547-.259.311.937.173,0,.237a1.406,1.406,0,0,1-.308.035,2.15,2.15,0,0,1-.824-.2,1.954,1.954,0,0,0-.641-.2.4.4,0,0,0-.264.093c-.353.3-.768,1.5-1.665,1.519a2.448,2.448,0,0,1,1.236.439l-.23.913a.551.551,0,0,0,.479.243,1.24,1.24,0,0,0,.418-.087c-.256-1.2.17-1.317,1.642-1.532l-.051.256a4.03,4.03,0,0,0-1.246.358,3.917,3.917,0,0,0-.063,1.04l1.245-.432a5.956,5.956,0,0,1,.643.723l-.069.546a.573.573,0,0,0,.205.041c.576,0,.69-1.094.432-1.815l1.6-.62c-.423.789-1.566.38-.992,1.359a4.177,4.177,0,0,1,.732-.068,2.4,2.4,0,0,1,1.013.194l-.8-.094-.008.1a2.235,2.235,0,0,1-.787,1.183l-.1.1.1.151a2.557,2.557,0,0,0,1.167-.81l-.487.584.116.14,1.117-.551-.036-.487-.43-.023-.224.267a4.823,4.823,0,0,0,.322-.432l.077-.119a.972.972,0,0,1,.409.338.591.591,0,0,1,.113.216c1.375-.564.974-1.143.31-2.248,1.317.66.717,2.326,1.848,3.117.1-1.222,1.261-2.46.4-3.742l.26,0c.723.924.559,1.417.761,2.672l.187-1.515.262.052-.118,1.077c.608-.7,1.619-1.914.9-2.819l.053-.292.432.231.344,2.039A5.191,5.191,0,0,0-35.5,21.683l.171.126-.016,2.079a5.847,5.847,0,0,0,.637-3l.261.051.337,3.242c1.3-.781,2-3.285,1.649-4.612l.128,0c.61.944-.192,2.757.471,3.552.862-1.322,1.409-2.4,1.273-2.952l.208.074a4.843,4.843,0,0,1-.978,2.69,5.3,5.3,0,0,1,2.888,2.814c.437.907.521,1.708.019,1.843a.53.53,0,0,1-.115.011,1.541,1.541,0,0,1-.674-.206l.208,3.427-.238.292-.352-2.983c-.475-.779-2.779-1.542-4.6-2.268a2.646,2.646,0,0,0-1.26-.38c-1.708,0-2.209,2.558-2.918,3.891a3.405,3.405,0,0,0,1.023-1.782l.258-.077.131,1.551a1.93,1.93,0,0,0,.663-2.289l.13-.093a1.565,1.565,0,0,0,.89.3c.207,0,.443-.036.8-.063-.51-.376-.676-.412-.552-1.053.1.4.119.748,1.014,1.012a2.4,2.4,0,0,1-1.212.264c-.373,0-.681-.059-.708-.151a3.052,3.052,0,0,1-1.7,3.116,2.084,2.084,0,0,0,.3-1.662c-1.387,2.249-.915,5.7,1.733,5.7a3.636,3.636,0,0,0,.772-.088c-.032-.086-.062-.174-.09-.262a3.961,3.961,0,0,1-.212-1.6,13.626,13.626,0,0,0,.641,1.423l.31.573.176.068.679.652-.125.386a1.577,1.577,0,0,0-.482-.648l.181.335a5.963,5.963,0,0,1,.6,1.515,1.934,1.934,0,0,1-.01.86,1.354,1.354,0,0,1-.442.7,1.793,1.793,0,0,0,0-1.434,13.367,13.367,0,0,0-.677-1.362c-.13-.256-.262-.517-.381-.786a5.568,5.568,0,0,0-2.16,1.256,6.385,6.385,0,0,1-2.1.388,16.919,16.919,0,0,1-3.232-.566c-.148-.035-.32-.069-.488-.106l-.357-.342c-1.173.124-2.166,1.592-2.977,2.4l1.228-.271.761,1.087,1.181-1.161.189.109c-.707.626-1.348,1.237-2.11,1.845l.249.436.907-.483c.436.522.42.6.372,1.381.258.3.473.423.658.423a.61.61,0,0,0,.446-.249,3.967,3.967,0,0,0,.441-.571c.066-.71-.206-1.4.562-1.556l-.3,1a3.223,3.223,0,0,0,.74-.661l.3.014a2.472,2.472,0,0,0-.643,1.008c.73.338,1.073.646,1.037.9a1.6,1.6,0,0,0,.736.246c.628,0,.629-.845.52-1.646l.319.179,1.015,2.414a2.413,2.413,0,0,0,.938-2.726c1,.9.683,3.084.513,3.337a2.927,2.927,0,0,0,.821-2.585.393.393,0,0,1,.145-.033c.273,0,.188.5.077.992s-.249.992-.08.992h.01l.791-1.05.341-1.571.335.087-.225,1.28c.36.489.191.454.333,1.31.372,0,.814-.557,1.3-1.658.031-.526-.066-1.017-.016-1.53l.169.071a6.2,6.2,0,0,1,.024,2.042.36.36,0,0,0,.12.021c.438,0,.9-.773,1.108-1.913a34.59,34.59,0,0,0,.082-4.431c.053-1.622,1.234-2.928,2.188-4.289a7.7,7.7,0,0,0,1.062-1.91l.812-2.361c.192,1.969-.687,3.437-1.864,4.926-.2.273-.423.552-.645.807-1.493,1.752-1.13,5.74-1.031,6.03a10.974,10.974,0,0,1-.887,5.916,4.884,4.884,0,0,0,1.747-4.1l.409.123a5.316,5.316,0,0,0,.072,2.733l.451-1.337.037-.053-.039-.072-.333-1.51.238-.241a.869.869,0,0,0,.078.128.911.911,0,0,0,.688.284,2.271,2.271,0,0,0,.734-.154h-.03c-1.113,0-1.3-.741-1.075-1.793h.131c.194.362-.064,1.457.769,1.457a1.829,1.829,0,0,0,.63-.141c-.155.742-.342.9-.709.9-.228,0-.525-.063-.926-.085.5,1.812,1.553,2.595,2.758,2.595a4.494,4.494,0,0,0,2.766-1.176c.915.246-1.923,1.352-2.39,1.777-2.177,2.1-1.431,3.772-3.257,4.009a3.978,3.978,0,0,1-.5.028A8.717,8.717,0,0,1-30.38,46.9a.44.44,0,0,0-.079-.007c-.551,0-1.572.916-1.961,1.252h.052a1.835,1.835,0,0,1,.919.208,1.657,1.657,0,0,1,1.234-.668,2.862,2.862,0,0,1,.62.094,3.131,3.131,0,0,0,.687.094,2.039,2.039,0,0,0,.682-.119,1.651,1.651,0,0,0,.373-.169,1.448,1.448,0,0,1-.371.258,1.622,1.622,0,0,1-.765.167,5.676,5.676,0,0,1-.587-.043,5.186,5.186,0,0,0-.569-.044c-.567,0-1.065.206-1.368,1.253l.582.028.574,1.6-.127.184.374.033c.386-.587.479-.533.472-1.337a3.009,3.009,0,0,0,.344.025,2.2,2.2,0,0,0,1.089-.4,1.981,1.981,0,0,0,.335-.169l-.2.532-.13.038c-.914.174-1.873,1.024-.971,1.815.2-.326.348-.454.483-.454.16,0,.3.181.509.426.094.09.208.216.338.326l.713-.01a2.992,2.992,0,0,0,.406-1.827l.454.469a1.039,1.039,0,0,0,.659-1.046l.188.054,0,.509a1.584,1.584,0,0,1,.554-.133c.366,0,.5.28.649.776,1.378-.016,1.307-2.986.443-3.47l.071-.564a5.044,5.044,0,0,1,1.281,2.756c.7-.992.33-2.282.15-3.43l.356.214.118-1.022h.209l.014,1.4a2.715,2.715,0,0,1,.789,2.18c.387-.517.365-2.539.083-4.231a3.013,3.013,0,0,1,.543,1.8,1.548,1.548,0,0,1,.208.106c.579.394.651,1.452.69,1.706a7.015,7.015,0,0,0-.423-4.392,1.991,1.991,0,0,1,.544-1.445c-.49,2.559,1.638,2.9,1.69,4.248a5.932,5.932,0,0,0-.789-4.113c-.441-.8-.779-1.155-.661-2.054.658-1.046-.032-1.348-.845-2.1a1.693,1.693,0,0,1-.3.183,3.012,3.012,0,0,1-1.432.412A1.769,1.769,0,0,1-22.73,38.3c-1.219-2.191,1.253-4.716.039-6.4,1.067.026.625,2.456.423,2.55a6.78,6.78,0,0,0,1.735.25q.23,0,.451-.021c2.909-.23,4.58-2.729,3.814-6.093-1.957-6.47-3.076-12.767-.556-19.326.536-.769,1.32-2.253,2.363-2.521A1.366,1.366,0,0,1-13.57,6.5a2.549,2.549,0,0,1,1.482.381,1.615,1.615,0,0,1-.5,2.739c-1.214-.185-1.158-.243-1.916-1.07a1.538,1.538,0,0,0,1.387,1.862,1.621,1.621,0,0,1-.317.033c-.793,0-1.268-.651-1.641-1.488-1.409,2.786,1.195,2.028,1.969,2.623-.516.7-1.363,1.51-1.9,2.225-2.131,2.941-1.629,6.254-1.059,8.964.127.628,1.446,5.487,1.345,6.4a6.82,6.82,0,0,0,.812-4.038c.493-1.209.529-1.17.5-1.666-.63-.647-1.844-4.043-1.577-5.12A5.573,5.573,0,0,1-13.154,14.2l.321.049c-2.809,2.548-1.966,6-.348,8.793.451-1.316-.362-2.477-.971-3.545.707.066,1.173,1.576,1.348,2.176a12.881,12.881,0,0,0-.13-4.8l.377.105c.011,1.085.746,2.78,1.944,2.78a1.748,1.748,0,0,0,1.03-.387c-4.447-2.194,1.324-8.42-.258-11.319a5.124,5.124,0,0,0-2.529-2.416,2.681,2.681,0,0,0-1.042-.211c-3.587,0-7.024,7.158-5.9,10.223a9.852,9.852,0,0,1,.66,2.381c-.719-.684-1.31-3.541-1.62-4.558-.019.057-.035.109-.053.167a19.678,19.678,0,0,0-.163,5.306c.074.162.152.326.228.491a9.929,9.929,0,0,1,1.285,4.581l-.112-.054a10.456,10.456,0,0,0-1.161-3.834,8.849,8.849,0,0,0-.971-1.467,14.306,14.306,0,0,0,1.006,4.8,15.217,15.217,0,0,0,.707,1.578c-.3-.379-.51-.7-.7-.976-.571-.943-.671-1.435-1.13-2.3a12.277,12.277,0,0,0,1.149,3.89c.94,2.195,2.067,4.535,1.953,6.05-.117,1.222-.764,1.8-1.546,1.8a1.715,1.715,0,0,1-.322-.03,3.114,3.114,0,0,1-2.091-2l-.99-9.671a19.75,19.75,0,0,0-1.369-4.087l-1.2,2.4-.189-.11c.356-1.553,1.7-3,2-4.56l.262-.093a4.771,4.771,0,0,1-.485,1.7,4.136,4.136,0,0,1,.689,1.377c.32-1.152.514-2.411.929-3.494a13.448,13.448,0,0,0,.963-2.362,8.69,8.69,0,0,1,.216-2.207l.017,1.4.365-.68a13.384,13.384,0,0,0,.623-1.338,5.191,5.191,0,0,0,.454-2.5,2.317,2.317,0,0,0-.487.133c-.442.186-.587.606-.936,1.16l-.321-.235a14.355,14.355,0,0,1-.155,2.882c-.51,2.36-1.845,3.72-3.582,5.109a8.163,8.163,0,0,0-3.13,5.451,7.044,7.044,0,0,0,.016,1.255l-.008-.627.008.627a4.766,4.766,0,0,0,.291,1.146h-.012a.5.5,0,0,1-.265-.071,5.24,5.24,0,0,1-1.123-1.775,7.8,7.8,0,0,1-.429-3.24l-.425.442c-.7-1.507.411-3.268,1.87-4.8a34.628,34.628,0,0,1,4.363-3.584l.244.127c-1.348,1.143-3.219,2.514-4.6,3.948-1.125,1.181-1.913,2.412-1.788,3.6l.9-1.124c-.294,2.155-.253,4.05.792,5.463a6.728,6.728,0,0,1,.151-2.922c.774-2.578,3.105-4.227,5.134-6.437,2.177-2.341,1.391-5.814,1.042-8.78l.242.122c.323,1.377.439,2.789.477,2.789l0,0c.241-.184.5-.586.794-.791a4.219,4.219,0,0,0,.446-.169c.668-.263.724-.481,1.176-3.334-1.247.344-.992,1.344-1.188,2.148a1.205,1.205,0,0,1-.809.958l-.134-.127.056-.129c.747-.011.69-1.685.739-2.141-.235-.258-.335-.669-.8-.669a.638.638,0,0,0-.067,0c-.444.225-.332.423-1.017.869l-.006-.366.758-.72a4.713,4.713,0,0,1,1.252-.177,2.7,2.7,0,0,0,1.787-.494c-.657.008-1.25.034-1.793.074-.372.041-.709.1-1.008.158-.5.077-.979.7-1.346,1.325l-.077-.1c.711-1.412,1.011-1.469,2.428-1.614.129-.02.241-.038.39-.057l.258-.531-.655.1h-.017l.017-.037.81-.938-.82.262-.63.191.623-.92Z" transform="translate(49.707)" fill="#fff"/>
      </g>
      <g id="Group_2297" data-name="Group 2297" transform="translate(14.729 32.203)">
        <path id="Path_16113" data-name="Path 16113" d="M-.007,0A3.94,3.94,0,0,0,.2,1.6c.027.088.057.176.09.262.062-.014.124-.029.189-.045L.945,2l-.31-.574A13.616,13.616,0,0,1-.006,0M.621,2.271a1.337,1.337,0,0,0-.155.01c.119.269.25.53.381.786a13.309,13.309,0,0,1,.676,1.363,1.784,1.784,0,0,1,0,1.435,1.349,1.349,0,0,0,.443-.7,1.934,1.934,0,0,0,.009-.86,5.929,5.929,0,0,0-.6-1.515l-.182-.335A.954.954,0,0,0,.62,2.271" transform="translate(0.018)" fill="#fff"/>
      </g>
      <g id="Group_2298" data-name="Group 2298" transform="translate(13.944 10.845)">
        <path id="Path_16114" data-name="Path 16114" d="M-4.348,0l-.1.036a.029.029,0,0,0,.026.016c.02,0,.044-.018.071-.053M-10.8,31.73l-.01.012.01-.012" transform="translate(10.809)" fill="#fff"/>
      </g>
      <g id="Group_2299" data-name="Group 2299" transform="translate(28.942 3.384)">
        <path id="Path_16115" data-name="Path 16115" d="M-.828,0l-1.2.033-.031.179a.771.771,0,0,1,.366.377l.079.13.071.1Z" transform="translate(2.059)" fill="#fff"/>
      </g>
      <g id="Group_2300" data-name="Group 2300" transform="translate(20.458 0.282)">
        <path id="Path_16116" data-name="Path 16116" d="M-.216,0C-.335,0-.435.2-.483.316c-.069.169-.072.278-.01.338L-.465.68.414.671.9.116Z" transform="translate(0.538)" fill="#fff"/>
      </g>
      <g id="Group_2301" data-name="Group 2301" transform="translate(7.221 34.11)">
        <path id="Path_16117" data-name="Path 16117" d="M-.67,0l-1,.727L-1.559.8c.314.216.445.285.536.285l.082-.014.028-.028C-.859.986-.863.9-.868.789A1.017,1.017,0,0,1-.808.317Z" transform="translate(1.665)" fill="#fff"/>
      </g>
    </g>
  </g>
</svg>
