
<svg version="1.1" xmlns="http://www.w3.org/2000/svg" width="66" height="66">
<path d="M0 0 C2.27650745 -0.3577614 2.27650745 -0.3577614 4 -1 C4.6875 1.3125 4.6875 1.3125 5 4 C3.5625 5.8125 3.5625 5.8125 2 7 C2.515625 7.4125 3.03125 7.825 3.5625 8.25 C4.036875 8.8275 4.51125 9.405 5 10 C4.6875 12.1875 4.6875 12.1875 4 14 C1.21176345 15.0326802 0.1322726 15.04509293 -2.75 14.0625 C-3.4925 13.711875 -4.235 13.36125 -5 13 C-5 13.66 -5 14.32 -5 15 C-6.32 15 -7.64 15 -9 15 C-9.08075665 12.70890403 -9.13907731 10.41700733 -9.1875 8.125 C-9.22230469 6.84882812 -9.25710938 5.57265625 -9.29296875 4.2578125 C-9.19628906 3.18273437 -9.09960938 2.10765625 -9 1 C-5.25686988 -1.49542008 -4.26097838 -0.78262868 0 0 Z M-1 4 C-1.33 4.66 -1.66 5.32 -2 6 C-1.01 5.67 -0.02 5.34 1 5 C0.34 4.67 -0.32 4.34 -1 4 Z M-5 8 C-4.67 8.99 -4.34 9.98 -4 11 C-3.34 11 -2.68 11 -2 11 C-1.67 10.01 -1.34 9.02 -1 8 C-2.32 8 -3.64 8 -5 8 Z " fill="#000000" transform="translate(10,1)"/>
</svg>
